<svg xmlns="http://www.w3.org/2000/svg" viewBox="0 0 128 128">
  <defs>
    <linearGradient id="tile" x1="0" y1="0" x2="1" y2="1">
      <stop offset="0" stop-color="#4db473"/>
      <stop offset="1" stop-color="#2c8a4e"/>
    </linearGradient>
    <linearGradient id="leaf" x1="0" y1="1" x2="0.7" y2="0">
      <stop offset="0" stop-color="#c9f2b8"/>
      <stop offset="1" stop-color="#8fe08f"/>
    </linearGradient>
  </defs>
  <rect x="6" y="6" width="116" height="116" rx="27" fill="url(#tile)"/>
  <g transform="translate(64 42) scale(1.14) translate(-64 -42)">
    <path d="M64 58 V38" stroke="#ffffff" stroke-width="8" stroke-linecap="round" fill="none"/>
    <path d="M64 40 C66 26 78 16 94 16 C96 32 84 42 66 42 Z" fill="url(#leaf)"/>
    <path d="M63 44 C61 34 52 27 40 27 C39 39 49 47 63 46 Z" fill="url(#leaf)"/>
  </g>
  <path d="M42 58 h44 a12 12 0 0 1 12 12 v18 a12 12 0 0 1 -12 12 h-44 a12 12 0 0 1 -12 -12 v-18 a12 12 0 0 1 12 -12 z"
        fill="none" stroke="#ffffff" stroke-width="9.5" stroke-linejoin="round"/>
</svg>
