<svg version="1.1" id="Layer_1" xmlns="http://www.w3.org/2000/svg" xmlns:xlink="http://www.w3.org/1999/xlink" x="0px" y="0px"
	 width="100%" viewBox="0 0 185 200" enable-background="new 0 0 185 200" xml:space="preserve">
<path fill="#FDFEFE" opacity="1.000000" stroke="none" 
	d="
M99.000000,201.000000 
	C66.000000,201.000000 33.500004,201.000000 1.000004,201.000000 
	C1.000003,134.333344 1.000003,67.666679 1.000001,1.000013 
	C62.666656,1.000009 124.333313,1.000009 185.999969,1.000004 
	C185.999985,67.666649 185.999985,134.333298 186.000000,200.999969 
	C157.166672,201.000000 128.333328,201.000000 99.000000,201.000000 
M82.888016,101.888031 
	C82.888016,101.888031 82.856697,101.749474 82.335457,101.880898 
	C82.091110,102.128128 81.846764,102.375359 81.760590,102.675880 
	C81.760590,102.675880 81.655716,102.546036 81.103226,102.727852 
	C80.683739,103.113579 80.264252,103.499298 79.930061,103.920174 
	C79.930061,103.920174 79.933746,103.828003 79.317627,103.881561 
	C78.817619,104.205589 78.317619,104.529610 77.913460,104.901115 
	C77.913460,104.901115 77.922897,104.794571 77.243317,104.856186 
	C76.662590,105.192261 76.081863,105.528336 75.222099,105.767487 
	C75.222099,105.767487 75.004494,105.967239 74.362701,105.922379 
	C73.544334,106.129196 72.725960,106.336021 70.984985,106.455956 
	C55.304001,106.590012 39.623020,106.724068 23.429298,106.286316 
	C23.265591,104.190414 23.101885,102.094521 23.143663,99.262054 
	C25.370077,87.302650 32.027119,81.682426 44.035774,81.596710 
	C46.028080,81.582497 48.204914,81.954529 49.951252,81.268845 
	C51.270176,80.750969 52.038322,78.830360 53.051601,77.534073 
	C51.763260,76.603142 50.578659,75.145317 49.161945,74.866379 
	C47.104122,74.461212 44.813984,75.284592 42.735462,74.928024 
	C29.220131,72.609459 15.701420,86.620422 15.907218,100.686546 
	C16.260397,124.826134 15.936075,148.975113 16.072908,173.119141 
	C16.088104,175.800613 17.251986,178.475571 17.918755,181.071793 
	C17.918755,181.071793 17.829645,181.068192 17.890217,181.668839 
	C18.241543,182.137680 18.592871,182.606537 19.000021,183.018646 
	C19.000021,183.018646 18.923090,183.039062 18.996510,183.587921 
	C19.278116,183.808228 19.559725,184.028534 19.872444,184.129318 
	C19.872444,184.129318 19.751425,184.153961 19.922384,184.686172 
	C20.231041,184.876617 20.539698,185.067047 20.871717,185.127792 
	C20.871717,185.127792 20.743912,185.159973 20.941336,185.678741 
	C21.248217,185.868393 21.555098,186.058044 21.885834,186.118835 
	C21.885834,186.118835 21.757561,186.145584 21.956604,186.660187 
	C22.271029,186.839951 22.585451,187.019714 22.919235,187.094620 
	C22.919235,187.094620 22.814260,187.113373 23.005770,187.629913 
	C23.334394,187.735626 23.663017,187.841339 24.629816,188.391022 
	C26.687159,188.951294 28.743788,189.996338 30.801950,189.999359 
	C63.540874,190.047379 96.279999,189.961960 129.750748,190.057892 
	C130.492584,190.007599 131.234421,189.957321 132.902008,190.083801 
	C140.898987,190.085663 148.900452,190.255844 156.891708,190.043121 
	C165.271408,189.820053 171.886124,183.458878 171.941864,175.085739 
	C172.111526,149.597244 172.156708,124.104500 171.860825,98.617943 
	C171.737625,88.006424 164.469772,79.375366 153.708771,75.584717 
	C153.708771,75.584717 153.332214,75.642052 153.296982,75.730843 
	C153.296982,75.730843 153.253845,75.645607 152.664413,75.145119 
	C138.525803,74.821075 124.387848,74.429955 110.247421,74.291878 
	C109.028587,74.279968 107.793396,75.943398 106.258789,77.249062 
	C106.380409,77.894272 106.502029,78.539482 106.660858,79.695801 
	C106.904320,79.922417 107.147781,80.149033 107.518341,80.590256 
	C107.518341,80.590256 107.743988,80.696548 108.032356,81.067757 
	C108.032356,81.067757 108.468399,81.244690 108.468399,81.244690 
	C108.468399,81.244690 108.932228,81.165245 109.680801,81.537216 
	C122.424393,81.554222 135.167984,81.571220 148.627884,81.936554 
	C149.418381,81.945541 150.208862,81.954529 151.622330,82.271301 
	C161.027191,86.185516 165.104065,93.206039 164.995560,103.402184 
	C164.751129,126.369408 164.854889,149.341492 164.984009,172.310654 
	C165.013931,177.635452 163.158157,181.304077 157.062759,182.933731 
	C114.385071,182.909546 71.707382,182.885361 28.605370,182.374466 
	C27.056255,181.247910 25.507143,180.121353 24.049416,178.318130 
	C23.743868,177.721100 23.438320,177.124084 23.249231,176.220596 
	C23.249231,176.220596 23.021357,175.984894 23.106840,175.054642 
	C23.091761,154.712585 23.076681,134.370529 23.007864,114.068123 
	C23.007864,114.068123 23.062059,114.107124 23.957882,113.837639 
	C38.505814,113.800797 53.054447,113.829033 67.601082,113.672127 
	C70.506500,113.640793 73.404289,112.902748 76.427048,112.526344 
	C76.427048,112.526344 76.553452,112.518951 77.213165,112.380463 
	C78.017830,112.003693 78.822495,111.626923 79.826859,111.294716 
	C79.826859,111.294716 79.971985,111.150467 80.611732,111.155045 
	C81.131012,110.818176 81.650291,110.481308 82.088951,110.098396 
	C82.088951,110.098396 82.081459,110.190941 82.741600,110.086632 
	C83.053070,109.781609 83.364540,109.476585 83.877281,109.198532 
	C83.877281,109.198532 83.998116,109.035332 84.612427,108.947708 
	C85.382782,108.290520 86.153137,107.633339 87.417053,106.847343 
	C87.620369,106.587265 87.823685,106.327179 88.546059,105.931618 
	C88.717964,105.628540 88.889870,105.325455 89.525055,104.867836 
	C89.841118,104.696625 90.008446,104.431534 90.518013,103.896690 
	C90.662880,103.592880 90.807747,103.289070 91.004562,102.994362 
	C91.004562,102.994362 90.976334,102.949799 91.485085,102.661957 
	C91.757309,102.160339 92.029533,101.658714 92.178421,101.147270 
	C92.178421,101.147270 92.237640,101.255898 92.692245,101.007965 
	C92.802681,100.689621 92.913116,100.371269 93.524895,99.718674 
	C93.726242,99.162727 93.927589,98.606781 94.699867,97.619576 
	C100.070488,87.309601 96.821884,76.034508 98.132172,65.022949 
	C99.424721,64.931488 100.553551,64.870514 101.678734,64.769226 
	C127.071533,62.483490 140.872635,46.781452 140.106277,21.202106 
	C140.012451,18.070763 139.171936,15.961885 135.705872,15.900661 
	C133.537582,15.862361 131.354965,15.865409 129.198273,16.062847 
	C112.828735,17.561426 96.444527,24.955929 92.002319,46.907906 
	C91.333260,50.214237 90.916847,53.571697 90.338135,57.189472 
	C80.954704,48.206070 72.040840,46.139153 60.915295,45.997784 
	C58.027325,45.961086 55.946068,46.725735 55.698620,49.947754 
	C54.708305,62.842415 59.032990,78.127380 73.424294,84.358284 
	C78.513603,86.561775 84.200500,87.385056 89.912514,88.918449 
	C89.869087,89.521149 89.787865,90.648537 89.856789,91.935471 
	C89.856789,91.935471 89.754799,91.741585 89.237358,92.108284 
	C89.059036,92.709167 88.880707,93.310051 88.280876,94.217247 
	C88.153488,94.715393 88.026100,95.213539 87.399498,95.974747 
	C87.260818,96.314430 87.122139,96.654106 87.001785,96.998749 
	C87.001785,96.998749 86.989922,96.982285 86.470863,97.334419 
	C85.876335,98.184227 85.281807,99.034035 84.279922,99.982117 
	C84.012505,100.140274 83.882271,100.374657 83.350029,100.904716 
	C83.149017,101.226753 82.948006,101.548798 82.888016,101.888031 
M80.625069,140.515854 
	C80.378159,143.710602 81.918526,144.983856 85.044930,144.935028 
	C90.988770,144.842178 96.939087,145.019836 102.877213,144.812851 
	C104.244911,144.765182 105.574280,143.617691 107.367653,142.470688 
	C108.029366,139.316406 106.608154,137.726501 103.526077,137.689117 
	C97.266983,137.613159 91.001709,137.531967 84.750343,137.761826 
	C83.478561,137.808594 82.256844,139.216675 80.625069,140.515854 
M69.704979,139.098572 
	C68.344048,138.618942 66.992561,137.759537 65.620544,137.725403 
	C59.653267,137.576859 53.663544,137.427887 47.719940,137.834290 
	C46.139206,137.942398 44.693302,140.022278 43.185501,141.196854 
	C44.779541,142.432877 46.302048,144.606689 47.980606,144.734711 
	C53.752098,145.174973 59.578453,144.864853 65.383369,144.909790 
	C68.859924,144.936707 70.860161,143.714539 69.704979,139.098572 
M144.738098,142.240677 
	C145.069016,139.360748 143.791016,137.767136 140.890839,137.731125 
	C134.601944,137.653015 128.296738,137.426407 122.033333,137.819733 
	C120.538445,137.913620 119.181381,140.202408 117.760933,141.481674 
	C119.115265,142.621033 120.417915,144.663132 121.832840,144.744156 
	C128.102112,145.103073 134.406693,145.001419 140.690842,144.812057 
	C141.947800,144.774185 143.171265,143.625046 144.738098,142.240677 
z"/>
<path fill="#194572" opacity="1.000000" stroke="none" 
	d="
M87.898720,95.711685 
	C88.026100,95.213539 88.153488,94.715393 88.802414,93.925720 
	C89.467567,93.003326 89.611183,92.372459 89.754799,91.741585 
	C89.754799,91.741585 89.856789,91.935471 90.191483,91.927536 
	C91.727097,93.963348 92.928017,96.007095 94.128937,98.050835 
	C93.927589,98.606781 93.726242,99.162727 93.106262,99.724297 
	C92.537636,100.238579 92.387634,100.747238 92.237640,101.255898 
	C92.237640,101.255898 92.178421,101.147270 91.941650,101.235825 
	C91.462029,101.866180 91.219177,102.407990 90.976334,102.949799 
	C90.976334,102.949799 91.004562,102.994362 90.765366,103.114990 
	C90.264786,103.457939 90.098404,103.736916 90.027023,104.072563 
	C90.008446,104.431534 89.841118,104.696625 89.060020,105.051109 
	C88.405655,105.511948 88.216324,105.789520 88.026993,106.067093 
	C87.823685,106.327179 87.620369,106.587265 86.820137,106.924103 
	C85.481522,107.679016 84.739815,108.357178 83.998116,109.035332 
	C83.998116,109.035332 83.877281,109.198532 83.437973,109.225861 
	C82.692924,109.565773 82.387192,109.878357 82.081459,110.190941 
	C82.081459,110.190941 82.088951,110.098396 81.798615,110.101227 
	C80.996185,110.452858 80.484085,110.801666 79.971985,111.150467 
	C79.971985,111.150467 79.826859,111.294716 79.363777,111.135437 
	C77.355392,110.329742 75.735275,109.569519 76.553452,112.518951 
	C76.553452,112.518951 76.427048,112.526344 75.890419,112.350494 
	C59.157181,112.116989 42.960342,112.013161 26.764414,112.093132 
	C25.527012,112.099236 24.296028,113.405304 23.062061,114.107124 
	C23.062059,114.107124 23.007864,114.068123 22.718740,114.321976 
	C22.295282,115.049583 22.044212,115.523140 22.043442,115.997108 
	C22.012632,134.942444 21.988064,153.887863 22.037359,172.833084 
	C22.040096,173.884521 22.678715,174.934326 23.021358,175.984894 
	C23.021357,175.984894 23.249231,176.220596 23.169361,176.723083 
	C23.379005,177.815308 23.668520,178.405060 23.958031,178.994812 
	C25.507143,180.121353 27.056255,181.247910 29.078100,182.948242 
	C30.685707,183.681641 31.820501,183.980103 32.955471,183.980774 
	C73.236870,184.004700 113.518288,184.010452 153.799637,183.959976 
	C155.198441,183.958237 156.596481,183.356430 157.994888,183.034302 
	C163.158157,181.304077 165.013931,177.635452 164.984009,172.310654 
	C164.854889,149.341492 164.751129,126.369408 164.995560,103.402184 
	C165.104065,93.206039 161.027191,86.185516 151.066437,81.852493 
	C149.540955,81.302071 148.571381,81.170464 147.276245,80.810760 
	C134.194092,80.443016 121.437485,80.303368 108.431320,80.269966 
	C108.035851,80.482986 107.889923,80.589767 107.743988,80.696548 
	C107.743988,80.696548 107.518341,80.590256 107.495575,80.204285 
	C107.189751,79.607101 106.906700,79.395897 106.623650,79.184692 
	C106.502029,78.539482 106.380409,77.894272 106.842346,76.932098 
	C109.556213,76.380722 111.684502,75.965424 113.817184,75.941467 
	C126.962189,75.793793 140.108185,75.734375 153.253845,75.645615 
	C153.253845,75.645607 153.296982,75.730843 153.277405,75.874748 
	C153.497208,75.964500 153.736572,75.910347 153.975952,75.856201 
	C164.469772,79.375366 171.737625,88.006424 171.860825,98.617943 
	C172.156708,124.104500 172.111526,149.597244 171.941864,175.085739 
	C171.886124,183.458878 165.271408,189.820053 156.891708,190.043121 
	C148.900452,190.255844 140.898987,190.085663 132.253387,189.761444 
	C130.742874,189.595062 129.880966,189.751038 129.019073,189.907013 
	C96.279999,189.961960 63.540874,190.047379 30.801950,189.999359 
	C28.743788,189.996338 26.687159,188.951294 24.175617,187.954803 
	C23.419031,187.383514 23.116644,187.248444 22.814259,187.113373 
	C22.814260,187.113373 22.919235,187.094620 22.816345,186.881470 
	C22.394825,186.494095 22.076191,186.319839 21.757559,186.145584 
	C21.757561,186.145584 21.885834,186.118835 21.794872,185.908752 
	C21.383911,185.519104 21.063913,185.339539 20.743914,185.159973 
	C20.743912,185.159973 20.871717,185.127792 20.786400,184.917160 
	C20.384531,184.522339 20.067976,184.338150 19.751423,184.153961 
	C19.751425,184.153961 19.872444,184.129318 19.804771,183.921783 
	C19.465759,183.489182 19.194420,183.264130 18.923086,183.039062 
	C18.923090,183.039062 19.000021,183.018646 18.964184,182.731689 
	C18.562113,181.985901 18.195879,181.527039 17.829643,181.068192 
	C17.829645,181.068192 17.918755,181.071793 17.936634,180.673035 
	C17.636621,174.158722 17.084244,168.044708 17.044636,161.927368 
	C16.923925,143.284012 17.000895,124.639359 17.000919,105.995209 
	C17.000921,104.212059 17.000917,102.428902 17.000917,99.998619 
	C19.385250,99.998619 21.161715,99.998619 22.938177,99.998619 
	C23.101885,102.094521 23.265591,104.190414 23.964890,106.895523 
	C26.287693,107.671684 28.074520,107.978516 29.862171,107.983398 
	C43.913719,108.021805 57.965431,108.002457 72.338531,107.972687 
	C73.441475,107.285400 74.222984,106.626320 75.004494,105.967239 
	C75.004494,105.967239 75.222099,105.767487 75.727676,105.832108 
	C76.796471,105.529343 77.359680,105.161949 77.922897,104.794571 
	C77.922897,104.794571 77.913460,104.901115 78.192368,104.898857 
	C78.958763,104.540398 79.446259,104.184204 79.933746,103.828003 
	C79.933746,103.828003 79.930061,103.920174 80.223656,103.905106 
	C80.896736,103.442032 81.276230,102.994034 81.655716,102.546036 
	C81.655716,102.546036 81.760590,102.675880 81.976105,102.660194 
	C82.413315,102.346161 82.635002,102.047813 82.856689,101.749474 
	C82.856697,101.749474 82.888016,101.888031 83.100143,101.785873 
	C83.504578,101.350883 83.696892,101.018066 83.889206,100.685249 
	C83.882271,100.374657 84.012505,100.140274 84.853851,99.925430 
	C85.948486,98.906586 86.469208,97.944435 86.989922,96.982285 
	C86.989922,96.982285 87.001785,96.998749 87.227219,96.849854 
	C87.601341,96.371201 87.750031,96.041443 87.898720,95.711685 
z"/>
<path fill="#1B4571" opacity="1.000000" stroke="none" 
	d="
M94.414398,97.835205 
	C92.928017,96.007095 91.727097,93.963348 90.116409,91.847763 
	C89.787865,90.648537 89.869087,89.521149 89.912514,88.918449 
	C84.200500,87.385056 78.513603,86.561775 73.424294,84.358284 
	C59.032990,78.127380 54.708305,62.842415 55.698620,49.947754 
	C55.946068,46.725735 58.027325,45.961086 60.915295,45.997784 
	C72.040840,46.139153 80.954704,48.206070 90.338135,57.189472 
	C90.916847,53.571697 91.333260,50.214237 92.002319,46.907906 
	C96.444527,24.955929 112.828735,17.561426 129.198273,16.062847 
	C131.354965,15.865409 133.537582,15.862361 135.705872,15.900661 
	C139.171936,15.961885 140.012451,18.070763 140.106277,21.202106 
	C140.872635,46.781452 127.071533,62.483490 101.678734,64.769226 
	C100.553551,64.870514 99.424721,64.931488 98.132172,65.022949 
	C96.821884,76.034508 100.070488,87.309601 94.414398,97.835205 
M118.237541,52.902649 
	C128.526611,46.116978 134.472183,33.584541 132.287292,23.287783 
	C114.162132,22.620474 97.319908,36.380093 99.660347,50.931786 
	C102.781906,47.873829 105.354660,44.875900 108.411278,42.500652 
	C111.172684,40.354824 113.375397,33.922272 117.681404,38.233395 
	C121.717323,42.274105 115.671875,44.633152 113.411789,47.080799 
	C110.475571,50.260700 106.783638,52.742817 103.416977,55.525272 
	C103.985367,56.264778 104.553757,57.004284 105.122147,57.743790 
	C109.271591,56.238041 113.421036,54.732292 118.237541,52.902649 
M62.933830,56.445095 
	C62.710037,67.298622 72.761589,80.812088 85.181854,79.488121 
	C81.501213,76.205017 78.310005,73.828171 75.783104,70.881622 
	C74.718903,69.640678 74.161644,66.607826 74.942284,65.421860 
	C76.615898,62.879246 78.982208,64.074982 80.747925,66.004723 
	C83.495323,69.007347 86.192780,72.055672 88.911400,75.084625 
	C87.905830,60.114277 77.187111,54.151554 65.414886,53.232933 
	C64.630165,53.171700 63.717922,54.744717 62.933830,56.445095 
z"/>
<path fill="#1B4571" opacity="1.000000" stroke="none" 
	d="
M23.040920,99.630341 
	C21.161715,99.998619 19.385250,99.998619 17.000917,99.998619 
	C17.000917,102.428902 17.000921,104.212059 17.000919,105.995209 
	C17.000895,124.639359 16.923925,143.284012 17.044636,161.927368 
	C17.084244,168.044708 17.636621,174.158722 17.918827,180.713898 
	C17.251986,178.475571 16.088104,175.800613 16.072908,173.119141 
	C15.936075,148.975113 16.260397,124.826134 15.907218,100.686546 
	C15.701420,86.620422 29.220131,72.609459 42.735462,74.928024 
	C44.813984,75.284592 47.104122,74.461212 49.161945,74.866379 
	C50.578659,75.145317 51.763260,76.603142 53.051601,77.534073 
	C52.038322,78.830360 51.270176,80.750969 49.951252,81.268845 
	C48.204914,81.954529 46.028080,81.582497 44.035774,81.596710 
	C32.027119,81.682426 25.370077,87.302650 23.040920,99.630341 
z"/>
<path fill="#1D4572" opacity="1.000000" stroke="none" 
	d="
M69.900093,139.475098 
	C70.860161,143.714539 68.859924,144.936707 65.383369,144.909790 
	C59.578453,144.864853 53.752098,145.174973 47.980606,144.734711 
	C46.302048,144.606689 44.779541,142.432877 43.185497,141.196854 
	C44.693302,140.022278 46.139206,137.942398 47.719940,137.834290 
	C53.663544,137.427887 59.653267,137.576859 65.620544,137.725403 
	C66.992561,137.759537 68.344048,138.618942 69.900093,139.475098 
z"/>
<path fill="#1D4572" opacity="1.000000" stroke="none" 
	d="
M144.574127,142.614502 
	C143.171265,143.625046 141.947800,144.774185 140.690842,144.812057 
	C134.406693,145.001419 128.102112,145.103073 121.832840,144.744156 
	C120.417915,144.663132 119.115265,142.621033 117.760933,141.481674 
	C119.181381,140.202408 120.538445,137.913620 122.033333,137.819733 
	C128.296738,137.426407 134.601944,137.653015 140.890839,137.731125 
	C143.791016,137.767136 145.069016,139.360748 144.574127,142.614502 
z"/>
<path fill="#1E4774" opacity="1.000000" stroke="none" 
	d="
M106.921288,142.976318 
	C105.574280,143.617691 104.244911,144.765182 102.877213,144.812851 
	C96.939087,145.019836 90.988770,144.842178 85.044930,144.935028 
	C81.918526,144.983856 80.378159,143.710602 81.233315,140.205933 
	C87.923691,139.599762 94.018539,139.455597 100.082993,138.948120 
	C103.513954,138.660980 105.728157,139.785889 106.921288,142.976318 
z"/>
<path fill="#163D5F" opacity="1.000000" stroke="none" 
	d="
M157.528824,182.984009 
	C156.596481,183.356430 155.198441,183.958237 153.799637,183.959976 
	C113.518288,184.010452 73.236870,184.004700 32.955471,183.980774 
	C31.820501,183.980103 30.685707,183.681641 29.290264,183.191589 
	C71.707382,182.885361 114.385071,182.909546 157.528824,182.984009 
z"/>
<path fill="#1B4571" opacity="1.000000" stroke="none" 
	d="
M23.509972,113.972382 
	C24.296028,113.405304 25.527012,112.099236 26.764414,112.093132 
	C42.960342,112.013161 59.157181,112.116989 75.829697,112.332611 
	C73.404289,112.902748 70.506500,113.640793 67.601082,113.672127 
	C53.054447,113.829033 38.505814,113.800797 23.509972,113.972382 
z"/>
<path fill="#3E597E" opacity="1.000000" stroke="none" 
	d="
M152.959137,75.395370 
	C140.108185,75.734375 126.962189,75.793793 113.817184,75.941467 
	C111.684502,75.965424 109.556213,76.380722 106.995850,76.721863 
	C107.793396,75.943398 109.028587,74.279968 110.247421,74.291878 
	C124.387848,74.429955 138.525803,74.821075 152.959137,75.395370 
z"/>
<path fill="#09355E" opacity="1.000000" stroke="none" 
	d="
M108.680870,80.163719 
	C121.437485,80.303368 134.194092,80.443016 147.346252,80.953796 
	C147.741806,81.324928 147.911575,81.588226 147.911575,81.588226 
	C135.167984,81.571220 122.424393,81.554222 109.270912,81.094009 
	C108.800980,80.488449 108.740929,80.326088 108.680870,80.163719 
z"/>
<path fill="#153455" opacity="1.000000" stroke="none" 
	d="
M23.064098,175.519775 
	C22.678715,174.934326 22.040096,173.884521 22.037359,172.833084 
	C21.988064,153.887863 22.012632,134.942444 22.043442,115.997108 
	C22.044212,115.523140 22.295282,115.049583 22.745609,114.302155 
	C23.076681,134.370529 23.091761,154.712585 23.064098,175.519775 
z"/>
<path fill="#164065" opacity="1.000000" stroke="none" 
	d="
M107.144470,142.723511 
	C105.728157,139.785889 103.513954,138.660980 100.082993,138.948120 
	C94.018539,139.455597 87.923691,139.599762 81.426804,139.946594 
	C82.256844,139.216675 83.478561,137.808594 84.750343,137.761826 
	C91.001709,137.531967 97.266983,137.613159 103.526077,137.689117 
	C106.608154,137.726501 108.029366,139.316406 107.144470,142.723511 
z"/>
<path fill="#0F3A62" opacity="1.000000" stroke="none" 
	d="
M72.017090,108.000900 
	C57.965431,108.002457 43.913719,108.021805 29.862171,107.983398 
	C28.074520,107.978516 26.287693,107.671684 24.221260,107.181427 
	C39.623020,106.724068 55.304001,106.590012 71.469048,106.864380 
	C71.974434,107.515511 71.995766,107.758202 72.017090,108.000900 
z"/>
<path fill="#1B4571" opacity="1.000000" stroke="none" 
	d="
M86.730392,97.158356 
	C86.469208,97.944435 85.948486,98.906586 85.057526,99.876297 
	C85.281807,99.034035 85.876335,98.184227 86.730392,97.158356 
z"/>
<path fill="#1B4571" opacity="1.000000" stroke="none" 
	d="
M76.883308,112.449707 
	C75.735275,109.569519 77.355392,110.329742 79.263924,111.113152 
	C78.822495,111.626923 78.017830,112.003693 76.883308,112.449707 
z"/>
<path fill="#1B4571" opacity="1.000000" stroke="none" 
	d="
M84.305267,108.991516 
	C84.739815,108.357178 85.481522,107.679016 86.573357,106.988510 
	C86.153137,107.633339 85.382782,108.290520 84.305267,108.991516 
z"/>
<path fill="#1B4571" opacity="1.000000" stroke="none" 
	d="
M72.338531,107.972687 
	C71.995766,107.758202 71.974434,107.515511 71.930351,106.907829 
	C72.725960,106.336021 73.544334,106.129196 74.683594,105.944809 
	C74.222984,106.626320 73.441475,107.285400 72.338531,107.972687 
z"/>
<path fill="#0B3E68" opacity="1.000000" stroke="none" 
	d="
M129.384918,189.982452 
	C129.880966,189.751038 130.742874,189.595062 131.790512,189.673065 
	C131.234421,189.957321 130.492584,190.007599 129.384918,189.982452 
z"/>
<path fill="#3E597E" opacity="1.000000" stroke="none" 
	d="
M148.269730,81.762390 
	C147.911575,81.588226 147.741806,81.324928 147.671799,81.181900 
	C148.571381,81.170464 149.540955,81.302071 150.754944,81.698593 
	C150.208862,81.954529 149.418381,81.945541 148.269730,81.762390 
z"/>
<path fill="#1B4571" opacity="1.000000" stroke="none" 
	d="
M77.583099,104.825378 
	C77.359680,105.161949 76.796471,105.529343 75.867195,105.880569 
	C76.081863,105.528336 76.662590,105.192261 77.583099,104.825378 
z"/>
<path fill="#1B4571" opacity="1.000000" stroke="none" 
	d="
M17.859930,181.368515 
	C18.195879,181.527039 18.562113,181.985901 18.936272,182.760071 
	C18.592871,182.606537 18.241543,182.137680 17.859930,181.368515 
z"/>
<path fill="#1B4571" opacity="1.000000" stroke="none" 
	d="
M24.003725,178.656464 
	C23.668520,178.405060 23.379005,177.815308 23.111130,176.876312 
	C23.438320,177.124084 23.743868,177.721100 24.003725,178.656464 
z"/>
<path fill="#1B4571" opacity="1.000000" stroke="none" 
	d="
M89.496078,91.924934 
	C89.611183,92.372459 89.467567,93.003326 89.013168,93.772568 
	C88.880707,93.310051 89.059036,92.709167 89.496078,91.924934 
z"/>
<path fill="#1B4571" opacity="1.000000" stroke="none" 
	d="
M92.464943,101.131927 
	C92.387634,100.747238 92.537636,100.238579 92.855591,99.891418 
	C92.913116,100.371269 92.802681,100.689621 92.464943,101.131927 
z"/>
<path fill="#1B4571" opacity="1.000000" stroke="none" 
	d="
M80.291855,111.152756 
	C80.484085,110.801666 80.996185,110.452858 81.838928,110.124252 
	C81.650291,110.481308 81.131012,110.818176 80.291855,111.152756 
z"/>
<path fill="#1B4571" opacity="1.000000" stroke="none" 
	d="
M81.379471,102.636948 
	C81.276230,102.994034 80.896736,103.442032 80.181007,103.887527 
	C80.264252,103.499298 80.683739,103.113579 81.379471,102.636948 
z"/>
<path fill="#1B4571" opacity="1.000000" stroke="none" 
	d="
M91.230705,102.805878 
	C91.219177,102.407990 91.462029,101.866180 92.003311,101.240730 
	C92.029533,101.658714 91.757309,102.160339 91.230705,102.805878 
z"/>
<path fill="#1B4571" opacity="1.000000" stroke="none" 
	d="
M79.625687,103.854782 
	C79.446259,104.184204 78.958763,104.540398 78.144440,104.875122 
	C78.317619,104.529610 78.817619,104.205589 79.625687,103.854782 
z"/>
<path fill="#1B4571" opacity="1.000000" stroke="none" 
	d="
M88.286522,105.999359 
	C88.216324,105.789520 88.405655,105.511948 88.828384,105.128380 
	C88.889870,105.325455 88.717964,105.628540 88.286522,105.999359 
z"/>
<path fill="#3E597E" opacity="1.000000" stroke="none" 
	d="
M153.842361,75.720459 
	C153.736572,75.910347 153.497208,75.964500 153.295013,75.830353 
	C153.332214,75.642052 153.708771,75.584717 153.842361,75.720459 
z"/>
<path fill="#1B4571" opacity="1.000000" stroke="none" 
	d="
M22.910015,187.371643 
	C23.116644,187.248444 23.419031,187.383514 23.856529,187.732819 
	C23.663017,187.841339 23.334394,187.735626 22.910015,187.371643 
z"/>
<path fill="#1B4571" opacity="1.000000" stroke="none" 
	d="
M21.857080,186.402893 
	C22.076191,186.319839 22.394825,186.494095 22.806665,186.933899 
	C22.585451,187.019714 22.271029,186.839951 21.857080,186.402893 
z"/>
<path fill="#1B4571" opacity="1.000000" stroke="none" 
	d="
M20.842625,185.419357 
	C21.063913,185.339539 21.383911,185.519104 21.782944,185.973175 
	C21.555098,186.058044 21.248217,185.868393 20.842625,185.419357 
z"/>
<path fill="#1B4571" opacity="1.000000" stroke="none" 
	d="
M19.836903,184.420074 
	C20.067976,184.338150 20.384531,184.522339 20.774719,184.982010 
	C20.539698,185.067047 20.231041,184.876617 19.836903,184.420074 
z"/>
<path fill="#3E597E" opacity="1.000000" stroke="none" 
	d="
M106.642258,79.440247 
	C106.906700,79.395897 107.189751,79.607101 107.432022,80.096977 
	C107.147781,80.149033 106.904320,79.922417 106.642258,79.440247 
z"/>
<path fill="#1B4571" opacity="1.000000" stroke="none" 
	d="
M18.959797,183.313507 
	C19.194420,183.264130 19.465759,183.489182 19.789215,183.981537 
	C19.559725,184.028534 19.278116,183.808228 18.959797,183.313507 
z"/>
<path fill="#3E597E" opacity="1.000000" stroke="none" 
	d="
M108.431320,80.269966 
	C108.740929,80.326088 108.800980,80.488449 108.896622,80.908020 
	C108.932228,81.165245 108.468399,81.244690 108.468399,81.244690 
	C108.468399,81.244690 108.032356,81.067757 107.888168,80.882156 
	C107.889923,80.589767 108.035851,80.482986 108.431320,80.269966 
z"/>
<path fill="#1B4571" opacity="1.000000" stroke="none" 
	d="
M90.272522,103.984627 
	C90.098404,103.736916 90.264786,103.457939 90.739395,103.110443 
	C90.807747,103.289070 90.662880,103.592880 90.272522,103.984627 
z"/>
<path fill="#1B4571" opacity="1.000000" stroke="none" 
	d="
M87.649109,95.843216 
	C87.750031,96.041443 87.601341,96.371201 87.218048,96.847374 
	C87.122139,96.654106 87.260818,96.314430 87.649109,95.843216 
z"/>
<path fill="#1B4571" opacity="1.000000" stroke="none" 
	d="
M82.596069,101.815186 
	C82.635002,102.047813 82.413315,102.346161 81.897018,102.633545 
	C81.846764,102.375359 82.091110,102.128128 82.596069,101.815186 
z"/>
<path fill="#1B4571" opacity="1.000000" stroke="none" 
	d="
M83.619614,100.794983 
	C83.696892,101.018066 83.504578,101.350883 83.029633,101.777275 
	C82.948006,101.548798 83.149017,101.226753 83.619614,100.794983 
z"/>
<path fill="#1B4571" opacity="1.000000" stroke="none" 
	d="
M82.411530,110.138786 
	C82.387192,109.878357 82.692924,109.565773 83.337341,109.212372 
	C83.364540,109.476585 83.053070,109.781609 82.411530,110.138786 
z"/>
<path fill="#F4F8FA" opacity="1.000000" stroke="none" 
	d="
M117.904007,53.064598 
	C113.421036,54.732292 109.271591,56.238041 105.122147,57.743790 
	C104.553757,57.004284 103.985367,56.264778 103.416977,55.525272 
	C106.783638,52.742817 110.475571,50.260700 113.411789,47.080799 
	C115.671875,44.633152 121.717323,42.274105 117.681404,38.233395 
	C113.375397,33.922272 111.172684,40.354824 108.411278,42.500652 
	C105.354660,44.875900 102.781906,47.873829 99.660347,50.931786 
	C97.319908,36.380093 114.162132,22.620474 132.287292,23.287783 
	C134.472183,33.584541 128.526611,46.116978 117.904007,53.064598 
z"/>
<path fill="#F1F5F8" opacity="1.000000" stroke="none" 
	d="
M62.899410,56.001358 
	C63.717922,54.744717 64.630165,53.171700 65.414886,53.232933 
	C77.187111,54.151554 87.905830,60.114277 88.911400,75.084625 
	C86.192780,72.055672 83.495323,69.007347 80.747925,66.004723 
	C78.982208,64.074982 76.615898,62.879246 74.942284,65.421860 
	C74.161644,66.607826 74.718903,69.640678 75.783104,70.881622 
	C78.310005,73.828171 81.501213,76.205017 85.181854,79.488121 
	C72.761589,80.812088 62.710037,67.298622 62.899410,56.001358 
z"/>
</svg>